<svg width="21" height="21" viewBox="0 0 21 21" fill="none" xmlns="http://www.w3.org/2000/svg">
<path d="M15.9584 5.34985V13.4749C15.9584 13.6406 15.8925 13.7996 15.7753 13.9168C15.6581 14.034 15.4991 14.0999 15.3334 14.0999C15.1676 14.0999 15.0086 14.034 14.8914 13.9168C14.7742 13.7996 14.7084 13.6406 14.7084 13.4749V6.85845L5.77554 15.792C5.65827 15.9093 5.49921 15.9752 5.33336 15.9752C5.1675 15.9752 5.00844 15.9093 4.89117 15.792C4.77389 15.6748 4.70801 15.5157 4.70801 15.3499C4.70801 15.184 4.77389 15.0249 4.89117 14.9077L13.8248 5.97485H7.20836C7.04259 5.97485 6.88362 5.90901 6.76641 5.7918C6.6492 5.67458 6.58336 5.51561 6.58336 5.34985C6.58336 5.18409 6.6492 5.02512 6.76641 4.90791C6.88362 4.7907 7.04259 4.72485 7.20836 4.72485H15.3334C15.4991 4.72485 15.6581 4.7907 15.7753 4.90791C15.8925 5.02512 15.9584 5.18409 15.9584 5.34985Z" fill="#EE5544"/>
</svg>
