<svg width="20" height="21" viewBox="0 0 20 21" fill="none" xmlns="http://www.w3.org/2000/svg">
<path d="M15.625 5.34961V13.4746C15.625 13.6404 15.5592 13.7993 15.442 13.9166C15.3247 14.0338 15.1658 14.0996 15 14.0996C14.8343 14.0996 14.6753 14.0338 14.5581 13.9166C14.4409 13.7993 14.375 13.6404 14.375 13.4746V6.8582L5.4422 15.7918C5.32492 15.9091 5.16586 15.975 5.00001 15.975C4.83416 15.975 4.6751 15.9091 4.55782 15.7918C4.44055 15.6745 4.37466 15.5155 4.37466 15.3496C4.37466 15.1838 4.44055 15.0247 4.55782 14.9074L13.4914 5.97461H6.87501C6.70925 5.97461 6.55028 5.90876 6.43307 5.79155C6.31586 5.67434 6.25001 5.51537 6.25001 5.34961C6.25001 5.18385 6.31586 5.02488 6.43307 4.90767C6.55028 4.79046 6.70925 4.72461 6.87501 4.72461H15C15.1658 4.72461 15.3247 4.79046 15.442 4.90767C15.5592 5.02488 15.625 5.18385 15.625 5.34961Z" fill="white"/>
</svg>
