<svg width="20" height="21" viewBox="0 0 20 21" fill="none" xmlns="http://www.w3.org/2000/svg">
<path d="M17.5 10.3498C17.5 10.5156 17.4342 10.6746 17.3169 10.7918C17.1997 10.909 17.0408 10.9748 16.875 10.9748H4.63359L9.19219 15.5326C9.25026 15.5907 9.29632 15.6597 9.32775 15.7355C9.35917 15.8114 9.37535 15.8927 9.37535 15.9748C9.37535 16.057 9.35917 16.1383 9.32775 16.2141C9.29632 16.29 9.25026 16.359 9.19219 16.417C9.13412 16.4751 9.06518 16.5212 8.98931 16.5526C8.91344 16.584 8.83212 16.6002 8.75 16.6002C8.66788 16.6002 8.58656 16.584 8.51069 16.5526C8.43482 16.5212 8.36588 16.4751 8.30781 16.417L2.68281 10.792C2.6247 10.734 2.5786 10.665 2.54715 10.5892C2.5157 10.5133 2.49951 10.432 2.49951 10.3498C2.49951 10.2677 2.5157 10.1864 2.54715 10.1105C2.5786 10.0346 2.6247 9.96569 2.68281 9.90765L8.30781 4.28265C8.42509 4.16537 8.58415 4.09949 8.75 4.09949C8.91585 4.09949 9.07491 4.16537 9.19219 4.28265C9.30946 4.39992 9.37535 4.55898 9.37535 4.72483C9.37535 4.89069 9.30946 5.04975 9.19219 5.16702L4.63359 9.72483H16.875C17.0408 9.72483 17.1997 9.79068 17.3169 9.90789C17.4342 10.0251 17.5 10.1841 17.5 10.3498Z" fill="#EE5544"/>
</svg>
