<svg width="32" height="33" viewBox="0 0 32 33" fill="none" xmlns="http://www.w3.org/2000/svg">
<path d="M29 6.5H20C19.2238 6.5 18.4582 6.68073 17.7639 7.02786C17.0697 7.375 16.4657 7.87902 16 8.5C15.5343 7.87902 14.9303 7.375 14.2361 7.02786C13.5418 6.68073 12.7762 6.5 12 6.5H3C2.73478 6.5 2.48043 6.60536 2.29289 6.79289C2.10536 6.98043 2 7.23478 2 7.5V25.5C2 25.7652 2.10536 26.0196 2.29289 26.2071C2.48043 26.3946 2.73478 26.5 3 26.5H12C12.7956 26.5 13.5587 26.8161 14.1213 27.3787C14.6839 27.9413 15 28.7044 15 29.5C15 29.7652 15.1054 30.0196 15.2929 30.2071C15.4804 30.3946 15.7348 30.5 16 30.5C16.2652 30.5 16.5196 30.3946 16.7071 30.2071C16.8946 30.0196 17 29.7652 17 29.5C17 28.7044 17.3161 27.9413 17.8787 27.3787C18.4413 26.8161 19.2044 26.5 20 26.5H29C29.2652 26.5 29.5196 26.3946 29.7071 26.2071C29.8946 26.0196 30 25.7652 30 25.5V7.5C30 7.23478 29.8946 6.98043 29.7071 6.79289C29.5196 6.60536 29.2652 6.5 29 6.5ZM12 24.5H4V8.5H12C12.7956 8.5 13.5587 8.81607 14.1213 9.37868C14.6839 9.94129 15 10.7044 15 11.5V25.5C14.1353 24.8493 13.0821 24.4983 12 24.5ZM28 24.5H20C18.9179 24.4983 17.8647 24.8493 17 25.5V11.5C17 10.7044 17.3161 9.94129 17.8787 9.37868C18.4413 8.81607 19.2044 8.5 20 8.5H28V24.5Z" fill="white"/>
</svg>
