<svg width="24" height="25" viewBox="0 0 24 25" fill="none" xmlns="http://www.w3.org/2000/svg">
<path d="M21 4.84961H3C2.80109 4.84961 2.61032 4.92863 2.46967 5.06928C2.32902 5.20993 2.25 5.4007 2.25 5.59961V18.3496C2.25 18.7474 2.40804 19.129 2.68934 19.4103C2.97064 19.6916 3.35218 19.8496 3.75 19.8496H20.25C20.6478 19.8496 21.0294 19.6916 21.3107 19.4103C21.592 19.129 21.75 18.7474 21.75 18.3496V5.59961C21.75 5.4007 21.671 5.20993 21.5303 5.06928C21.3897 4.92863 21.1989 4.84961 21 4.84961ZM19.0716 6.34961L12 12.8324L4.92844 6.34961H19.0716ZM20.25 18.3496H3.75V7.30492L11.4928 14.4027C11.6312 14.5298 11.8122 14.6002 12 14.6002C12.1878 14.6002 12.3688 14.5298 12.5072 14.4027L20.25 7.30492V18.3496Z" fill="#24272D"/>
</svg>
