<svg width="32" height="33" viewBox="0 0 32 33" fill="none" xmlns="http://www.w3.org/2000/svg">
<path d="M9 18.5H4C3.73478 18.5 3.48043 18.3946 3.29289 18.2071C3.10536 18.0196 3 17.7652 3 17.5C3 17.2348 3.10536 16.9804 3.29289 16.7929C3.48043 16.6054 3.73478 16.5 4 16.5H8.465L10.1675 13.945C10.2588 13.8078 10.3825 13.6953 10.5278 13.6175C10.673 13.5397 10.8352 13.499 11 13.499C11.1648 13.499 11.327 13.5397 11.4722 13.6175C11.6175 13.6953 11.7412 13.8078 11.8325 13.945L15 18.695L16.1675 16.945C16.2589 16.808 16.3827 16.6957 16.5279 16.6181C16.6732 16.5405 16.8353 16.4999 17 16.5H20C20.2652 16.5 20.5196 16.6054 20.7071 16.7929C20.8946 16.9804 21 17.2348 21 17.5C21 17.7652 20.8946 18.0196 20.7071 18.2071C20.5196 18.3946 20.2652 18.5 20 18.5H17.535L15.8325 21.055C15.7412 21.1922 15.6175 21.3047 15.4722 21.3825C15.327 21.4603 15.1648 21.501 15 21.501C14.8352 21.501 14.673 21.4603 14.5278 21.3825C14.3825 21.3047 14.2588 21.1922 14.1675 21.055L11 16.3025L9.8325 18.0525C9.74139 18.1899 9.6177 18.3027 9.47246 18.3808C9.32721 18.4589 9.1649 18.4998 9 18.5ZM22.25 5.5C19.6688 5.5 17.4088 6.61 16 8.48625C14.5912 6.61 12.3313 5.5 9.75 5.5C7.69528 5.50232 5.72539 6.31958 4.27248 7.77248C2.81958 9.22539 2.00232 11.1953 2 13.25C2 13.3437 2 13.4375 2 13.5312C2.00829 13.7965 2.12159 14.0475 2.31499 14.2292C2.50839 14.4109 2.76603 14.5083 3.03125 14.5C3.29647 14.4917 3.54753 14.3784 3.7292 14.185C3.91088 13.9916 4.00829 13.734 4 13.4687C4 13.3962 4 13.3225 4 13.25C4.00198 11.7256 4.60842 10.2642 5.68633 9.18633C6.76423 8.10842 8.22561 7.50198 9.75 7.5C12.1812 7.5 14.2225 8.795 15.075 10.875C15.1503 11.0584 15.2785 11.2153 15.4432 11.3257C15.6079 11.4361 15.8017 11.495 16 11.495C16.1983 11.495 16.3921 11.4361 16.5568 11.3257C16.7215 11.2153 16.8497 11.0584 16.925 10.875C17.7775 8.79125 19.8188 7.5 22.25 7.5C23.7744 7.50198 25.2358 8.10842 26.3137 9.18633C27.3916 10.2642 27.998 11.7256 28 13.25C28 19.9512 18.28 26.0187 16 27.35C14.6462 26.5612 10.6712 24.1 7.665 20.8237C7.57619 20.7269 7.46918 20.6485 7.35007 20.593C7.23096 20.5375 7.10209 20.506 6.97081 20.5003C6.83953 20.4946 6.70842 20.5149 6.58496 20.5598C6.46149 20.6048 6.3481 20.6737 6.25125 20.7625C6.1544 20.8513 6.07599 20.9583 6.0205 21.0774C5.965 21.1965 5.93352 21.3254 5.92783 21.4567C5.92214 21.588 5.94237 21.7191 5.98735 21.8425C6.03233 21.966 6.10119 22.0794 6.19 22.1762C10.0863 26.4262 15.3062 29.2612 15.5262 29.38C15.6719 29.4583 15.8346 29.4993 16 29.4993C16.1654 29.4993 16.3281 29.4583 16.4737 29.38C17.0262 29.0825 30 22 30 13.25C29.9977 11.1953 29.1804 9.22539 27.7275 7.77248C26.2746 6.31958 24.3047 5.50232 22.25 5.5Z" fill="white"/>
</svg>
