<svg width="24" height="25" viewBox="0 0 24 25" fill="none" xmlns="http://www.w3.org/2000/svg">
<path d="M20.8472 15.2053L16.4306 13.2262L16.4184 13.2206C16.1892 13.1225 15.939 13.0832 15.6907 13.1061C15.4424 13.129 15.2037 13.2135 14.9963 13.3519C14.9718 13.368 14.9484 13.3855 14.9259 13.4044L12.6441 15.3497C11.1984 14.6475 9.70595 13.1662 9.00376 11.7394L10.9519 9.42279C10.9706 9.39935 10.9884 9.37591 11.0053 9.3506C11.1407 9.1437 11.2229 8.90653 11.2445 8.6602C11.2661 8.41387 11.2264 8.16603 11.1291 7.93873V7.92748L9.14438 3.50341C9.0157 3.20647 8.79444 2.95912 8.51362 2.79826C8.2328 2.63741 7.9075 2.57169 7.58626 2.61091C6.31592 2.77808 5.14986 3.40195 4.30588 4.366C3.4619 5.33006 2.99771 6.56837 3.00001 7.84966C3.00001 15.2934 9.05626 21.3497 16.5 21.3497C17.7813 21.352 19.0196 20.8878 19.9837 20.0438C20.9477 19.1998 21.5716 18.0338 21.7388 16.7634C21.7781 16.4423 21.7125 16.1171 21.5518 15.8363C21.3911 15.5555 21.144 15.3341 20.8472 15.2053ZM16.5 19.8497C13.3185 19.8462 10.2682 18.5808 8.01856 16.3311C5.76888 14.0814 4.50348 11.0312 4.50001 7.84966C4.49648 6.93419 4.82631 6.04872 5.42789 5.35864C6.02947 4.66856 6.86167 4.22104 7.76907 4.09966C7.7687 4.1034 7.7687 4.10717 7.76907 4.11091L9.73782 8.51716L7.80001 10.8365C7.78034 10.8592 7.76247 10.8833 7.74657 10.9087C7.60549 11.1252 7.52273 11.3745 7.5063 11.6323C7.48988 11.8902 7.54035 12.148 7.65282 12.3806C8.5022 14.1178 10.2525 15.855 12.0084 16.7034C12.2428 16.8148 12.502 16.8636 12.7608 16.8448C13.0196 16.8261 13.2692 16.7405 13.485 16.5965C13.5091 16.5803 13.5322 16.5628 13.5544 16.544L15.8334 14.5997L20.2397 16.5731C20.2397 16.5731 20.2472 16.5731 20.25 16.5731C20.1301 17.4818 19.6833 18.3157 18.9931 18.9187C18.3028 19.5218 17.4166 19.8528 16.5 19.8497Z" fill="#24272D"/>
</svg>
