<svg width="32" height="33" viewBox="0 0 32 33" fill="none" xmlns="http://www.w3.org/2000/svg">
<path d="M26 5.5H6C5.46957 5.5 4.96086 5.71071 4.58579 6.08579C4.21071 6.46086 4 6.96957 4 7.5V14.5C4 21.09 7.19 25.0837 9.86625 27.2738C12.7487 29.6313 15.6163 30.4312 15.7413 30.465C15.9131 30.5118 16.0944 30.5118 16.2663 30.465C16.3913 30.4312 19.255 29.6313 22.1413 27.2738C24.81 25.0837 28 21.09 28 14.5V7.5C28 6.96957 27.7893 6.46086 27.4142 6.08579C27.0391 5.71071 26.5304 5.5 26 5.5ZM26 14.5C26 19.1337 24.2925 22.895 20.925 25.6775C19.4591 26.8846 17.7919 27.824 16 28.4525C14.2315 27.835 12.5849 26.9123 11.135 25.7262C7.7275 22.9387 6 19.1625 6 14.5V7.5H26V14.5ZM10.2925 18.2075C10.1049 18.0199 9.99944 17.7654 9.99944 17.5C9.99944 17.2346 10.1049 16.9801 10.2925 16.7925C10.4801 16.6049 10.7346 16.4994 11 16.4994C11.2654 16.4994 11.5199 16.6049 11.7075 16.7925L14 19.0863L20.2925 12.7925C20.3854 12.6996 20.4957 12.6259 20.6171 12.5756C20.7385 12.5253 20.8686 12.4994 21 12.4994C21.1314 12.4994 21.2615 12.5253 21.3829 12.5756C21.5043 12.6259 21.6146 12.6996 21.7075 12.7925C21.8004 12.8854 21.8741 12.9957 21.9244 13.1171C21.9747 13.2385 22.0006 13.3686 22.0006 13.5C22.0006 13.6314 21.9747 13.7615 21.9244 13.8829C21.8741 14.0043 21.8004 14.1146 21.7075 14.2075L14.7075 21.2075C14.6146 21.3005 14.5043 21.3742 14.3829 21.4246C14.2615 21.4749 14.1314 21.5008 14 21.5008C13.8686 21.5008 13.7385 21.4749 13.6171 21.4246C13.4957 21.3742 13.3854 21.3005 13.2925 21.2075L10.2925 18.2075Z" fill="white"/>
</svg>
