<svg width="24" height="25" viewBox="0 0 24 25" fill="none" xmlns="http://www.w3.org/2000/svg">
<path d="M23.7609 7.54966C23.7609 7.54966 23.5266 5.89497 22.8047 5.16841C21.8906 4.21216 20.8688 4.20747 20.4 4.15122C17.0438 3.90747 12.0047 3.90747 12.0047 3.90747H11.9953C11.9953 3.90747 6.95625 3.90747 3.6 4.15122C3.13125 4.20747 2.10938 4.21216 1.19531 5.16841C0.473438 5.89497 0.24375 7.54966 0.24375 7.54966C0.24375 7.54966 0 9.49497 0 11.4356V13.2543C0 15.195 0.239062 17.1403 0.239062 17.1403C0.239062 17.1403 0.473437 18.795 1.19062 19.5215C2.10469 20.4778 3.30469 20.445 3.83906 20.5481C5.76094 20.7309 12 20.7872 12 20.7872C12 20.7872 17.0438 20.7778 20.4 20.5387C20.8688 20.4825 21.8906 20.4778 22.8047 19.5215C23.5266 18.795 23.7609 17.1403 23.7609 17.1403C23.7609 17.1403 24 15.1997 24 13.2543V11.4356C24 9.49497 23.7609 7.54966 23.7609 7.54966ZM9.52031 15.4622V8.71685L16.0031 12.1012L9.52031 15.4622Z" fill="#24272D"/>
</svg>
