<svg width="24" height="25" viewBox="0 0 24 25" fill="none" xmlns="http://www.w3.org/2000/svg">
<g clip-path="url(#clip0_1_8361)">
<path d="M12 0.349609C5.37264 0.349609 0 5.72225 0 12.3496C0 17.9771 3.87456 22.6994 9.10128 23.9963V16.0168H6.62688V12.3496H9.10128V10.7694C9.10128 6.68513 10.9498 4.79201 14.9597 4.79201C15.72 4.79201 17.0318 4.94129 17.5685 5.09009V8.41409C17.2853 8.38433 16.7933 8.36945 16.1822 8.36945C14.2147 8.36945 13.4544 9.11489 13.4544 11.0526V12.3496H17.3741L16.7006 16.0168H13.4544V24.2618C19.3963 23.5442 24.0005 18.485 24.0005 12.3496C24 5.72225 18.6274 0.349609 12 0.349609Z" fill="#24272D"/>
</g>
<defs>
<clipPath id="clip0_1_8361">
<rect width="24" height="24" fill="white" transform="translate(0 0.349609)"/>
</clipPath>
</defs>
</svg>
