<svg width="16" height="13" viewBox="0 0 16 13" fill="none" xmlns="http://www.w3.org/2000/svg">
<path d="M15.3172 6.79202L9.69219 12.417C9.57491 12.5343 9.41585 12.6002 9.25 12.6002C9.08415 12.6002 8.92509 12.5343 8.80781 12.417C8.69054 12.2997 8.62465 12.1407 8.62465 11.9748C8.62465 11.809 8.69054 11.6499 8.80781 11.5326L13.3664 6.97483H1.125C0.95924 6.97483 0.800269 6.90899 0.683058 6.79178C0.565848 6.67457 0.5 6.51559 0.5 6.34983C0.5 6.18407 0.565848 6.0251 0.683058 5.90789C0.800269 5.79068 0.95924 5.72483 1.125 5.72483H13.3664L8.80781 1.16702C8.69054 1.04975 8.62465 0.890687 8.62465 0.724835C8.62465 0.558982 8.69054 0.399923 8.80781 0.282647C8.92509 0.165372 9.08415 0.0994873 9.25 0.0994873C9.41585 0.0994873 9.57491 0.165372 9.69219 0.282647L15.3172 5.90765C15.3753 5.96569 15.4214 6.03462 15.4529 6.1105C15.4843 6.18637 15.5005 6.2677 15.5005 6.34983C15.5005 6.43197 15.4843 6.5133 15.4529 6.58917C15.4214 6.66505 15.3753 6.73398 15.3172 6.79202Z" fill="#EE5544"/>
</svg>
